<?xml version="1.0"?>
<svg
xmlns:xlink="http://www.w3.org/1999/xlink"
xmlns:svg="http://www.w3.org/2000/svg"
xmlns="http://www.w3.org/2000/svg"
width="410"
height="60.25"
viewBox="0 0 108.47916 15.941146"
version="1.1">
<defs>
<style>
use {display:none}
use:target {display:block}
</style>
<g id="logo">
<path
d="m 102.21,14.621 q -1.416,0 -2.598,-0.403 -1.174,-0.403 -2.123,-1.21 l 1.138,-1.398 q 0.744,0.645 1.64,0.968 0.896,0.323 1.944,0.323 1.416,0 2.195,-0.52 0.78,-0.53 0.78,-1.487 v -0.01 q 0,-0.744001 -0.394,-1.138 -0.394,-0.394 -1.04,-0.582001 -0.636,-0.197 -1.398,-0.323 Q 101.628,8.707 100.876,8.535999 100.132,8.366 99.506,8.006 98.879,7.648001 98.494,6.976001 q -0.385,-0.68 -0.385,-1.828 v -0.01 q 0,-1.82 1.21,-2.813001 1.21,-1.003 3.413,-1.003 1.048,0 2.052,0.34 1.003,0.33 1.953,1.02 l -1.04,1.45 q -1.478,-1.093 -2.965,-1.093 -1.335,0 -2.078,0.538001 -0.735,0.53 -0.735,1.505 v 0.01 q 0,0.735 0.43,1.12 0.43,0.376 1.12,0.564 0.7,0.188 1.496,0.35 0.717,0.143 1.433,0.35 0.717,0.197 1.3,0.582 0.59,0.376 0.94,1.04 0.358,0.663 0.358,1.73 v 0.018 q 0,1.8 -1.254,2.786 -1.254,0.986 -3.53,0.986 z M 91.084,14.62 q -1.416,0 -2.598,-0.403 -1.174,-0.403 -2.123,-1.21 l 1.138,-1.398 q 0.744,0.645 1.64,0.968 0.896,0.323 1.944,0.323 1.416,0 2.195,-0.52 0.78,-0.53 0.78,-1.487 v -0.01 q 0,-0.744 -0.394,-1.138 Q 93.272,9.351 92.626,9.163 91.99,8.966 91.228,8.84 90.502,8.706 89.75,8.535 89.006,8.365 88.38,8.005 87.753,7.647 87.368,6.975 86.983,6.295 86.983,5.147 v -0.01 q 0,-1.82 1.21,-2.813 1.21,-1.003 3.413,-1.003 1.048,0 2.052,0.34 1.003,0.33 1.953,1.02 l -1.04,1.45 q -1.478,-1.093 -2.965,-1.093 -1.335,0 -2.078,0.538 -0.735,0.53 -0.735,1.505 v 0.01 q 0,0.735 0.43,1.12 0.43,0.376 1.12,0.564 0.7,0.188 1.496,0.35 0.717,0.143 1.433,0.35 0.717,0.197 1.3,0.582 0.59,0.376 0.94,1.04 0.358,0.663 0.358,1.73 v 0.018 q 0,1.8 -1.254,2.786 -1.254,0.986 -3.53,0.986 z M 70.3,1.457 66.32,9.19 v 5.295 H 64.492 V 9.19 l -3.97,-7.732 h 2.034 l 2.85,5.877 2.85,-5.877 z M 5.57,14.484 1.323,1.457 h 2 L 6.44,11.67 9.565,1.457 h 2 L 7.308,14.484 Z M 15.27,1.457 V 14.483 H 13.442 V 1.457 Z m 7.5,13.16 q -1.362,0 -2.383,-0.6 -1.02,-0.6 -1.586,-1.702 -0.564,-1.093 -0.564,-2.553 V 6.188 q 0,-1.47 0.564,-2.562 0.564,-1.093 1.586,-1.693 1.02,-0.6 2.383,-0.6 1.13,0 2.06,0.484 0.94,0.484 1.568,1.353 0.636,0.87 0.86,2.034 H 25.386 Q 25.216,4.577 24.813,4.111 24.419,3.636 23.881,3.376 q -0.538,-0.26 -1.1,-0.26 -1.2,0 -1.935,0.85 -0.726,0.842 -0.726,2.23 V 9.76 q 0,1.4 0.726,2.23 0.735,0.842 1.935,0.842 0.85,0 1.604,-0.493 0.753,-0.493 1.012,-1.416 h 1.872 q -0.224,1.1 -0.86,1.944 -0.636,0.824 -1.568,1.3 -0.932,0.457 -2.06,0.457 z m 8.987,-0.134 V 2.524 h 1.828 v 11.96 z M 28.075,3.183 V 1.457 h 9.192 v 1.738 z m 14.952,11.435 q -1.38,0 -2.4,-0.6 -1.03,-0.6 -1.604,-1.684 -0.564,-1.084 -0.564,-2.526 v -3.7 q 0,-1.442 0.564,-2.526 0.573,-1.084 1.604,-1.675 1.03,-0.6 2.4,-0.6 1.38,0 2.4,0.6 1.03,0.6 1.595,1.675 0.573,1.084 0.573,2.526 v 3.7 q 0,1.442 -0.573,2.526 -0.564,1.084 -1.595,1.684 -1.03,0.6 -2.4,0.6 z m 0,-1.8 q 1.227,0 1.962,-0.806 0.744,-0.806 0.744,-2.132 V 6.062 q 0,-1.326 -0.744,-2.132 -0.735,-0.806 -1.962,-0.806 -1.227,0 -1.97,0.806 -0.735,0.806 -0.735,2.132 V 9.88 q 0,1.326 0.735,2.132 0.744,0.806 1.97,0.806 z m 8.35,-3.844 V 7.236 h 4.802 q 0.636,0 1.02,-0.555 0.385,-0.555 0.385,-1.47 0,-0.914 -0.385,-1.47 -0.385,-0.555 -1.02,-0.555 H 51.377 V 1.448 h 4.73 q 1.03,0 1.8,0.475 0.77,0.466 1.192,1.308 0.43,0.842 0.43,1.98 0,1.138 -0.43,1.98 -0.42,0.842 -1.192,1.317 -0.77,0.466 -1.8,0.466 z m -0.797,5.5 V 1.448 h 1.828 v 13.035 z m 7.33,0 -2.985,-5.904 1.82,-0.412 3.333,6.325 z m 13.294,0.01 v -1.828 h 1.828 v 1.828 z m 8.87,0.134 q -1.362,0 -2.383,-0.6 -1.02,-0.6 -1.586,-1.702 -0.564,-1.093 -0.564,-2.553 V 6.188 q 0,-1.47 0.564,-2.562 0.564,-1.093 1.586,-1.693 1.02,-0.6 2.383,-0.6 1.13,0 2.06,0.484 0.94,0.484 1.568,1.353 0.636,0.87 0.86,2.034 H 82.7 Q 82.53,4.577 82.127,4.111 81.733,3.636 81.195,3.376 q -0.538,-0.26 -1.1,-0.26 -1.2,0 -1.935,0.85 -0.726,0.842 -0.726,2.23 V 9.76 q 0,1.4 0.726,2.23 0.735,0.842 1.935,0.842 0.85,0 1.604,-0.493 0.753,-0.493 1.012,-1.416 h 1.872 q -0.224,1.1 -0.86,1.944 -0.636,0.824 -1.568,1.3 -0.932,0.457 -2.06,0.457 z"/>
</g>
</defs>
<use xlink:href="#logo" id="light" fill="white"/>
<use xlink:href="#logo" id="dark" fill="black"/>
</svg>
